<svg xmlns="http://www.w3.org/2000/svg" width="141.531" height="122.606" viewBox="0 0 141.531 122.606">
  <g id="Apartment-Real_Estate-Residental-Property-Building" data-name="Apartment-Real Estate-Residental-Property-Building" transform="translate(0.25 0.253)">
    <path id="Path_597" data-name="Path 597" d="M139.129,41.778l-5.242-2.609a7.1,7.1,0,0,0-4.866-.541l-14.2,3.549V34.256a7.077,7.077,0,0,0-4.442-6.534l-7.569-3.032a7.1,7.1,0,0,0-3.761-.423L77.216,27.792V20.365A7,7,0,0,0,72.4,13.689L62.62,10.422a6.626,6.626,0,0,0-3.385-.259L7.9,18.719A7,7,0,0,0,2,25.653V125.1a7.073,7.073,0,0,0,7.052,7.052H135.979a7.073,7.073,0,0,0,7.052-7.052v-77a7.033,7.033,0,0,0-3.9-6.323ZM11.4,127.454H9.052A2.351,2.351,0,0,1,6.7,125.1V108.2l4.7-.8Zm9.4,0H16.1V106.605l4.7-.8Zm9.4,0h-4.7V105.007l4.7-.8Zm9.4,0h-4.7V103.408l4.7-.8Zm9.4,0h-4.7V101.81l4.7-.8Zm9.4,0h-4.7V100.235l4.7-.8Zm0-32.79L6.7,103.432V94.1l51.711-8.767Zm0-14.1L6.7,89.329V80L58.412,71.23Zm0-14.1L6.7,75.226V65.894l51.711-8.767Zm0-14.1L6.7,61.123V51.791l51.711-8.767Zm0-14.1L6.7,47.019V37.688l51.711-8.767Zm0-14.1L6.7,32.916V25.653a2.325,2.325,0,0,1,1.974-2.3l49.737-8.3Zm14.1,103.305h-9.4V15.546l7.8,2.586a2.351,2.351,0,0,1,1.6,2.233Zm7.052,0H77.216V102.985l2.351-.4Zm9.4,0h-4.7V101.786l4.7-.776Zm9.4,0h-4.7V100.212l4.7-.8Zm0-32.813L77.216,98.214V88.882l21.155-3.573Zm0-14.1L77.216,84.111V74.779l21.155-3.573Zm0-14.1L77.216,70.008V60.676L98.371,57.1Zm0-14.1L77.216,55.9V46.573L98.371,43Zm0-14.1L77.216,41.8V32.54l21.155-3.408Zm11.753,89.226h-7.052V29.861l5.571,2.233a2.35,2.35,0,0,1,1.481,2.162Zm9.4,0h-4.7V102.069l4.7-.87Zm9.4,0h-4.7V100.329l4.7-.87Zm0-32.766-14.1,2.609V87.965l14.1-2.609Zm0-14.1-14.1,2.609V73.862l14.1-2.609Zm0-14.1-14.1,2.609V59.759l14.1-2.609Zm0-14.1-14.1,2.609V47.019l14.1-3.526Zm9.4,72.725a2.351,2.351,0,0,1-2.351,2.351h-2.351V44.293l3.408,1.692A2.332,2.332,0,0,1,138.33,48.1Z" transform="translate(-2 -10.053)" fill="#d8a64a" stroke="#d8a64a" stroke-width="0.5"/>
  </g>
</svg>
