<svg xmlns="http://www.w3.org/2000/svg" width="43" height="12.39" viewBox="0 0 43 12.39">
  <g id="Layer_2" data-name="Layer 2" transform="translate(-2.5 -23.5)">
    <path id="Path_606" data-name="Path 606" d="M29.695,23.5a6.195,6.195,0,1,0,6.195,6.195A6.195,6.195,0,0,0,29.695,23.5Zm0,10.2A4.008,4.008,0,1,1,33.7,29.695,4.008,4.008,0,0,1,29.695,33.7Z" transform="translate(-5.695)" fill="#002437"/>
    <path id="Path_607" data-name="Path 607" d="M8.695,23.5a6.195,6.195,0,1,0,6.195,6.195A6.195,6.195,0,0,0,8.695,23.5Zm0,10.2A4.008,4.008,0,1,1,12.7,29.695,4.008,4.008,0,0,1,8.695,33.7Z" fill="#002437"/>
    <path id="Path_608" data-name="Path 608" d="M50.695,23.5a6.195,6.195,0,1,0,6.195,6.195A6.195,6.195,0,0,0,50.695,23.5Zm0,10.2A4.008,4.008,0,1,1,54.7,29.695,4.008,4.008,0,0,1,50.695,33.7Z" transform="translate(-11.39)" fill="#002437"/>
  </g>
</svg>
