<svg xmlns="http://www.w3.org/2000/svg" width="169.237" height="102.62" viewBox="0 0 169.237 102.62">
  <g id="mall_2_" data-name="mall (2)" transform="translate(0 0)">
    <g id="Group_488" data-name="Group 488" transform="translate(0 0)">
      <g id="Group_479" data-name="Group 479" transform="translate(30.064 58.052)">
        <g id="Group_478" data-name="Group 478">
          <path id="Path_585" data-name="Path 585" d="M106.547,277.13l-5.679,5.71-5.679-5.71a2.481,2.481,0,0,0-4.236,1.748V293.75a2.479,2.479,0,1,0,4.957,0v-8.864l3.2,3.218a2.479,2.479,0,0,0,3.515,0l3.2-3.218v8.864a2.479,2.479,0,1,0,4.958,0V278.878A2.481,2.481,0,0,0,106.547,277.13Z" transform="translate(-90.953 -276.396)" fill="#d8a64a"/>
        </g>
      </g>
      <g id="Group_481" data-name="Group 481" transform="translate(52.725 58.059)">
        <g id="Group_480" data-name="Group 480">
          <path id="Path_586" data-name="Path 586" d="M175.466,292.894l-5.577-14.873a2.481,2.481,0,0,0-4.641,0l-5.577,14.873a2.479,2.479,0,0,0,4.642,1.741l.326-.871h5.86l.327.871a2.478,2.478,0,1,0,4.641-1.741Zm-8.969-4.087,1.071-2.856,1.071,2.856Z" transform="translate(-159.512 -276.418)" fill="#d8a64a"/>
        </g>
      </g>
      <g id="Group_483" data-name="Group 483" transform="translate(71.648 58.055)">
        <g id="Group_482" data-name="Group 482">
          <path id="Path_587" data-name="Path 587" d="M226.841,291.278h-5.122V278.884a2.479,2.479,0,0,0-4.958,0v14.873a2.479,2.479,0,0,0,2.479,2.479h7.6a2.479,2.479,0,0,0,0-4.958Z" transform="translate(-216.761 -276.406)" fill="#d8a64a"/>
        </g>
      </g>
      <g id="Group_485" data-name="Group 485" transform="translate(85.947 58.055)">
        <g id="Group_484" data-name="Group 484">
          <path id="Path_588" data-name="Path 588" d="M270.1,291.278h-5.123V278.884a2.479,2.479,0,0,0-4.957,0v14.873a2.479,2.479,0,0,0,2.479,2.479h7.6a2.479,2.479,0,0,0,0-4.958Z" transform="translate(-260.02 -276.406)" fill="#d8a64a"/>
        </g>
      </g>
      <g id="Group_487" data-name="Group 487" transform="translate(0)">
        <g id="Group_486" data-name="Group 486">
          <path id="Path_589" data-name="Path 589" d="M166.758,198.432H149.9V174.223a10.74,10.74,0,0,0-7.963-10.376l-6.257-1.676c-.02-.006-.039-.014-.06-.019L36.69,135.645v-3.081a2.486,2.486,0,0,1,1.838-2.393l90.9-24.358a2.475,2.475,0,0,1,2.383.631,2.422,2.422,0,0,1,.737,1.765v46.434a2.479,2.479,0,0,0,4.958,0V108.21a7.437,7.437,0,0,0-9.367-7.183L93.158,110.4v-.388a7.446,7.446,0,0,0-7.437-7.437h-39.8a7.445,7.445,0,0,0-7.437,7.437v15.039l-1.235.331a7.448,7.448,0,0,0-5.513,7.183v4.981s0,0,0,0,0,0,0,.006a2.455,2.455,0,0,0,.026.305c0,.033,0,.066.009.1a2.486,2.486,0,0,0,1.8,1.982l107.085,28.694a5.787,5.787,0,0,1,4.287,5.586v24.209H97.014v-7.437a7.437,7.437,0,0,0-7.437-7.437H79.66a7.437,7.437,0,0,0-7.437,7.437v7.437H24.295V140.686a2.458,2.458,0,0,1,1.4-2.231A2.479,2.479,0,0,0,23.518,134h0a7.434,7.434,0,0,0-4.178,6.687v57.746H2.479a2.479,2.479,0,1,0,0,4.958H74.7a2.484,2.484,0,0,0,2.479-2.479v-9.916a2.488,2.488,0,0,1,2.479-2.479h9.916a2.488,2.488,0,0,1,2.479,2.479v9.916a2.483,2.483,0,0,0,2.479,2.479h72.223a2.479,2.479,0,1,0,0-4.958ZM43.439,110.012a2.482,2.482,0,0,1,2.479-2.479h39.8a2.482,2.482,0,0,1,2.479,2.479v1.717L43.439,123.722Z" transform="translate(0 -100.769)" fill="#d8a64a"/>
        </g>
      </g>
    </g>
  </g>
</svg>
