<svg xmlns="http://www.w3.org/2000/svg" width="139.049" height="123.935" viewBox="0 0 139.049 123.935">
  <g id="school_2_" data-name="school (2)" transform="translate(0.772 0.75)">
    <g id="Group_489" data-name="Group 489" transform="translate(0 0)">
      <path id="Path_590" data-name="Path 590" d="M135.491,146.463H133.2V90.212h2.291a2.014,2.014,0,0,0,1.841-2.832L128.72,68a2.015,2.015,0,0,0-1.841-1.2H84.656l-13.89-13.89V42.85H83.822a2.014,2.014,0,0,0,2.014-2.014V30.071a2.014,2.014,0,0,0-2.014-2.014H68.752a2.014,2.014,0,0,0-2.014,2.014V52.918l-13.89,13.89H10.625A2.015,2.015,0,0,0,8.785,68L.173,87.38a2.014,2.014,0,0,0,1.841,2.832H4.305v56.251H2.014a2.014,2.014,0,1,0,0,4.028H135.491a2.014,2.014,0,0,0,0-4.029ZM81.808,38.821H70.767V32.085H81.808ZM11.934,70.837H48.82L33.472,86.184H5.114Zm-3.6,19.376H34.307a2.013,2.013,0,0,0,1.424-.59L68.752,56.6l33.021,33.021a2.013,2.013,0,0,0,1.424.59h15.07a2.014,2.014,0,1,0,0-4.028H104.032L88.685,70.837H125.57l6.821,15.347h-5.512a2.014,2.014,0,0,0,0,4.028h2.291v56.251H87.989v-6.6a2.014,2.014,0,0,0-2.014-2.014H83.684V120.491a2.014,2.014,0,0,0-2.014-2.014H55.835a2.014,2.014,0,0,0-2.014,2.014v17.361H51.53a2.014,2.014,0,0,0-2.014,2.014v6.6H8.334Zm71.321,32.293v15.347H70.767V122.505ZM66.738,137.852H57.849V122.505h8.889Zm17.223,4.028v4.583H53.544v-4.583Z" transform="translate(0 -28.057)" fill="#d8a64a" stroke="#d8a64a" stroke-width="1.5"/>
    </g>
    <g id="Group_490" data-name="Group 490" transform="translate(53.821 49.516)">
      <path id="Path_591" data-name="Path 591" d="M215.334,242.29A14.931,14.931,0,1,0,200.4,227.358,14.948,14.948,0,0,0,215.334,242.29Zm0-25.834a10.9,10.9,0,1,1-10.9,10.9A10.915,10.915,0,0,1,215.334,216.455Z" transform="translate(-200.403 -212.427)" fill="#d8a64a" stroke="#d8a64a" stroke-width="1.5"/>
    </g>
    <g id="Group_491" data-name="Group 491" transform="translate(66.738 60.28)">
      <path id="Path_592" data-name="Path 592" d="M250.514,262.994a2.014,2.014,0,0,0,2.014-2.014v-3.061l3.192-1.6a2.014,2.014,0,0,0-1.8-3.6l-4.306,2.153a2.014,2.014,0,0,0-1.113,1.8v4.306A2.014,2.014,0,0,0,250.514,262.994Z" transform="translate(-248.5 -252.507)" fill="#d8a64a" stroke="#d8a64a" stroke-width="1.5"/>
    </g>
  </g>
</svg>
